<?xml version="1.0" encoding="UTF-8" standalone="no"?>
<!DOCTYPE svg PUBLIC "-//W3C//DTD SVG 1.1//EN" "http://www.w3.org/Graphics/SVG/1.1/DTD/svg11.dtd">
<svg width="100%" height="100%" viewBox="0 0 2500 2500" version="1.1" xmlns="http://www.w3.org/2000/svg" xmlns:xlink="http://www.w3.org/1999/xlink" xml:space="preserve" xmlns:serif="http://www.serif.com/" style="fill-rule:evenodd;clip-rule:evenodd;stroke-linejoin:round;stroke-miterlimit:2;">
    <g transform="matrix(6.66667,0,0,6.66667,-23.6125,-26700.3)">
        <g transform="matrix(1,0,0,1,3.53731,3.54049)">
            <path d="M86.054,4001.51L288.95,4001.51C289.013,4001.51 289.075,4001.51 289.138,4001.51C336.243,4001.51 375.004,4040.27 375.004,4087.38C375.004,4087.44 375.004,4087.5 375.004,4087.56L375.004,4290.46C375.004,4290.52 375.004,4290.58 375.004,4290.65C375.004,4337.75 336.243,4376.51 289.138,4376.51C289.075,4376.51 289.013,4376.51 288.95,4376.51L86.054,4376.51C85.992,4376.51 85.929,4376.51 85.866,4376.51C38.761,4376.51 -0,4337.75 -0,4290.65C-0,4290.58 -0,4290.52 0,4290.46L0,4087.56C-0,4087.5 -0,4087.44 -0,4087.38C-0,4040.27 38.761,4001.51 85.866,4001.51C85.929,4001.51 85.992,4001.51 86.054,4001.51Z" style="fill:rgb(9,64,194);fill-rule:nonzero;"/>
        </g>
        <path d="M82.163,4108.15C80.188,4108.15 78.325,4108.49 76.563,4109.19L111.85,4145.52L147.529,4182.5L148.179,4183.28L150.263,4185.37L152.346,4187.58L182.946,4218.96C183.454,4219.27 184.933,4220.64 186.088,4221.22C187.575,4221.96 189.183,4222.65 190.842,4222.71C192.633,4222.77 194.463,4222.26 196.075,4221.48C197.283,4220.89 197.821,4220.05 199.221,4218.96L234.638,4182.38L270.446,4145.52L304.95,4109.98C302.712,4108.77 300.203,4108.14 297.658,4108.15L82.163,4108.15L82.163,4108.15ZM71.354,4112.57C67.592,4116.14 65.233,4121.5 65.233,4127.55L65.233,4246.82C65.233,4251.72 66.804,4256.17 69.4,4259.58L74.346,4254.89L111.196,4219.08L143.879,4187.44L143.229,4186.66L107.421,4149.81L71.613,4112.83L71.354,4112.57ZM309.638,4113.75L274.742,4149.82L239.063,4186.67L238.413,4187.32L272.396,4220.26L309.246,4256.07L311.458,4258.15C313.442,4254.97 314.583,4251.05 314.583,4246.82L314.583,4127.55C314.583,4122.16 312.717,4117.27 309.638,4113.75ZM148.046,4191.74L115.496,4223.38L78.517,4259.19L73.829,4263.75C76.3,4265.34 79.113,4266.35 82.163,4266.35L297.658,4266.35C301.325,4266.35 304.65,4264.95 307.425,4262.71L305.083,4260.37L268.104,4224.56L234.121,4191.75L203.521,4223.25C201.867,4224.35 200.758,4225.57 199.142,4226.32C196.538,4227.52 193.688,4228.54 190.821,4228.5C187.946,4228.45 185.125,4227.32 182.546,4226.06C181.25,4225.42 180.558,4224.79 179.042,4223.52L148.046,4191.74Z" style="fill:white;fill-rule:nonzero;"/>
    </g>
</svg>
